<svg width="45" height="45" viewBox="0 0 45 45" fill="none" xmlns="http://www.w3.org/2000/svg">
<path d="M45 22.5C45 34.9281 34.9235 45 22.5 45C10.0719 45 0 34.9235 0 22.5C0 10.0719 10.0719 0 22.5 0C34.9281 0 45 10.0719 45 22.5Z" fill="white"/>
<path d="M27.0665 38.7018C27.0665 38.7018 32.4944 21.2742 7.84332 13.3124C7.84332 13.3124 -1.86399 38.4056 24.4096 41.7826C24.4096 41.7826 15.7003 32.294 14.88 26.1005C14.88 26.1005 22.7734 36.9517 27.0665 38.7018Z" fill="#01BDB2"/>
<path d="M22.7051 11.1748C24.6986 11.1748 26.3146 9.55875 26.3146 7.56529C26.3146 5.57183 24.6986 3.95581 22.7051 3.95581C20.7116 3.95581 19.0956 5.57183 19.0956 7.56529C19.0956 9.55875 20.7116 11.1748 22.7051 11.1748Z" fill="#01BDB2"/>
<path d="M38.6059 11.0016C33.2327 12.4372 29.2268 14.3786 26.2416 16.5434C23.1061 14.9392 19.8795 14.4971 18.5031 14.3741C21.2558 15.7003 26.7931 18.968 29.2131 24.7058C30.9358 22.4134 32.1481 20.595 32.1481 20.595C31.9749 22.4817 31.0862 24.7012 29.9377 26.8751C30.6304 29.6369 30.5985 32.8818 29.3453 36.6462C44.918 30.2385 38.6059 11.0016 38.6059 11.0016Z" fill="#01BDB2"/>
</svg>