<svg style="position: absolute; width: 0; height: 0; overflow: hidden;" version="1.1" xmlns="http://www.w3.org/2000/svg" xmlns:xlink="http://www.w3.org/1999/xlink">
<defs>
<symbol id="cl-svg-tablet2" viewBox="0 0 25 32">
<title>tablet2</title>
<path d="M1.504 32h21.984c0.832 0 1.504-0.672 1.504-1.504v-28.992c0-0.832-0.672-1.504-1.504-1.504h-21.984c-0.832 0-1.504 0.672-1.504 1.504v28.992c0 0.832 0.672 1.504 1.504 1.504zM0.992 1.504c0-0.288 0.224-0.512 0.512-0.512h21.984c0.288 0 0.512 0.224 0.512 0.512v28.992c0 0.288-0.224 0.512-0.512 0.512h-21.984c-0.288 0-0.512-0.224-0.512-0.512v-28.992zM3.488 27.008h18.016c0.288 0 0.512-0.224 0.512-0.512v-23.008c0-0.256-0.224-0.48-0.512-0.48h-18.016c-0.256 0-0.48 0.224-0.48 0.48v23.008c0 0.288 0.224 0.512 0.48 0.512zM4 4h16.992v21.984h-16.992v-21.984zM12 28.992c0 0.576 0.448 1.024 0.992 1.024s1.024-0.448 1.024-1.024c0-0.544-0.448-0.992-1.024-0.992s-0.992 0.448-0.992 0.992z"></path>
</symbol>
<symbol id="cl-svg-bargraph" viewBox="0 0 36 32">
<title>bargraph</title>
<path d="M26.016 10.496v20c0 0.192 0.032 0.352 0.064 0.512h-3.168c0.064-0.16 0.096-0.32 0.096-0.512v-28.992c0-0.832-0.672-1.504-1.504-1.504h-7.008c-0.832 0-1.504 0.672-1.504 1.504v28.992c0 0.192 0.032 0.352 0.096 0.512h-3.168c0.032-0.16 0.096-0.32 0.096-0.512v-11.008c0-0.832-0.672-1.504-1.504-1.504h-7.008c-0.832 0-1.504 0.672-1.504 1.504v11.008c0 0.832 0.672 1.504 1.504 1.504h32.992c0.832 0 1.504-0.672 1.504-1.504v-20c0-0.832-0.672-1.504-1.504-1.504h-7.008c-0.8 0-1.472 0.672-1.472 1.504zM4.992 31.008h-3.488c-0.288 0-0.512-0.224-0.512-0.512v-11.008c0-0.256 0.224-0.48 0.512-0.48h7.008c0.256 0 0.48 0.224 0.48 0.48v11.008c0 0.288-0.224 0.512-0.48 0.512h-3.52zM14.496 31.008c-0.256 0-0.48-0.224-0.48-0.512v-28.992c0-0.288 0.224-0.512 0.48-0.512h7.008c0.288 0 0.512 0.224 0.512 0.512v28.992c0 0.288-0.224 0.512-0.512 0.512h-7.008zM35.008 10.496v20c0 0.288-0.224 0.512-0.512 0.512h-7.008c-0.256 0-0.48-0.224-0.48-0.512v-20c0-0.288 0.224-0.512 0.48-0.512h7.008c0.288 0 0.512 0.224 0.512 0.512z"></path>
</symbol>
<symbol id="cl-svg-grid2" viewBox="0 0 31 32">
<title>grid2</title>
<path d="M28.512 11.008c0.256 0 0.48-0.224 0.48-0.512s-0.224-0.512-0.48-0.512h-7.52v-7.488c0-0.288-0.224-0.512-0.48-0.512s-0.512 0.224-0.512 0.512v7.488h-8.992v-7.488c0-0.288-0.224-0.512-0.512-0.512s-0.48 0.224-0.48 0.512v7.488h-7.52c-0.256 0-0.48 0.224-0.48 0.512s0.224 0.512 0.48 0.512h7.52v8.992h-7.52c-0.256 0-0.48 0.224-0.48 0.512s0.224 0.48 0.48 0.48h7.52v8.512c0 0.288 0.224 0.512 0.48 0.512s0.512-0.224 0.512-0.512v-8.512h8.992v8.512c0 0.288 0.224 0.512 0.512 0.512s0.48-0.224 0.48-0.512v-8.512h7.52c0.256 0 0.48-0.224 0.48-0.48s-0.224-0.512-0.48-0.512h-7.52v-8.992h7.52zM20 20h-8.992v-8.992h8.992v8.992zM31.008 30.496v-28.992c0-0.832-0.672-1.504-1.504-1.504h-28c-0.832 0-1.504 0.672-1.504 1.504v28.992c0 0.832 0.672 1.504 1.504 1.504h28c0.832 0 1.504-0.672 1.504-1.504zM0.992 30.496v-28.992c0-0.288 0.224-0.512 0.512-0.512h28c0.288 0 0.512 0.224 0.512 0.512v28.992c0 0.288-0.224 0.512-0.512 0.512h-28c-0.288 0-0.512-0.224-0.512-0.512z"></path>
</symbol>
<symbol id="cl-svg-expand2" viewBox="0 0 32 32">
<title>expand2</title>
<path d="M32 30.496v-28.992c0-0.832-0.672-1.504-1.504-1.504h-28.992c-0.832 0-1.504 0.672-1.504 1.504v8.992c0 0.288 0.224 0.512 0.512 0.512s0.48-0.224 0.48-0.512v-8.992c0-0.288 0.224-0.512 0.512-0.512h28.992c0.288 0 0.512 0.224 0.512 0.512v28.992c0 0.288-0.224 0.512-0.512 0.512h-8.992c-0.288 0-0.512 0.224-0.512 0.48s0.224 0.512 0.512 0.512h8.992c0.832 0 1.504-0.672 1.504-1.504zM1.504 12.992c-0.832 0-1.504 0.672-1.504 1.504v16c0 0.832 0.672 1.504 1.504 1.504h16c0.832 0 1.504-0.672 1.504-1.504v-16.8l7.008-6.976v6.784c0 0.256 0.224 0.48 0.48 0.48s0.512-0.224 0.512-0.48v-8c0-0.288-0.224-0.512-0.512-0.512h-8c-0.256 0-0.48 0.224-0.48 0.512s0.224 0.48 0.48 0.48h6.784l-6.976 7.008h-16.8zM18.016 30.496c0 0.288-0.224 0.512-0.512 0.512h-16c-0.288 0-0.512-0.224-0.512-0.512v-16c0-0.288 0.224-0.512 0.512-0.512h16.512v16.512z"></path>
</symbol>
</defs>
</svg>
